<svg width="30" height="30" viewBox="0 0 30 30" fill="none" xmlns="http://www.w3.org/2000/svg">
<path d="M21.5025 8.73833L12.1667 18.0742L7.08087 13.0025L5.08337 15L12.1667 22.0833L23.5 10.75L21.5025 8.73833ZM15 0.833334C7.18004 0.833334 0.833374 7.18 0.833374 15C0.833374 22.82 7.18004 29.1667 15 29.1667C22.82 29.1667 29.1667 22.82 29.1667 15C29.1667 7.18 22.82 0.833334 15 0.833334ZM15 26.3333C8.73837 26.3333 3.66671 21.2617 3.66671 15C3.66671 8.73833 8.73837 3.66667 15 3.66667C21.2617 3.66667 26.3334 8.73833 26.3334 15C26.3334 21.2617 21.2617 26.3333 15 26.3333Z" fill="white"/>
</svg>
