<svg width="30" height="30" viewBox="0 0 30 30" fill="none" xmlns="http://www.w3.org/2000/svg">
<path d="M18.6692 9.33333L15 13.0025L11.3309 9.33333L9.33337 11.3308L13.0025 15L9.33337 18.6692L11.3309 20.6667L15 16.9975L18.6692 20.6667L20.6667 18.6692L16.9975 15L20.6667 11.3308L18.6692 9.33333ZM15 0.833333C7.16587 0.833333 0.833374 7.16583 0.833374 15C0.833374 22.8342 7.16587 29.1667 15 29.1667C22.8342 29.1667 29.1667 22.8342 29.1667 15C29.1667 7.16583 22.8342 0.833333 15 0.833333ZM15 26.3333C8.75254 26.3333 3.66671 21.2475 3.66671 15C3.66671 8.7525 8.75254 3.66667 15 3.66667C21.2475 3.66667 26.3334 8.7525 26.3334 15C26.3334 21.2475 21.2475 26.3333 15 26.3333Z" fill="white"/>
</svg>
