<svg width="40" height="40" viewBox="0 0 40 40" fill="none" xmlns="http://www.w3.org/2000/svg">
<path d="M28.2292 25.0753H26.4846L25.8662 24.4598C28.0304 21.8611 29.3333 18.4873 29.3333 14.8172C29.3333 6.63355 22.9071 0 14.9792 0C7.05125 0 0.625 6.63355 0.625 14.8172C0.625 23.0009 7.05125 29.6344 14.9792 29.6344C18.5346 29.6344 21.8029 28.2895 24.3204 26.0555L24.9167 26.6938V28.4946L35.9583 39.8697L39.2487 36.4731L28.2292 25.0753ZM14.9792 25.0753C9.48042 25.0753 5.04167 20.4933 5.04167 14.8172C5.04167 9.14108 9.48042 4.55914 14.9792 4.55914C20.4779 4.55914 24.9167 9.14108 24.9167 14.8172C24.9167 20.4933 20.4779 25.0753 14.9792 25.0753Z" fill="#F7F7F7"/>
</svg>
