<svg width="37" height="39" viewBox="0 0 37 39" fill="none" xmlns="http://www.w3.org/2000/svg">
<path d="M32.4825 21.4083C32.553 20.8018 32.6 20.1711 32.6 19.5161C32.6 18.8612 32.553 18.2305 32.459 17.624L36.4305 14.4219C36.783 14.1308 36.877 13.5972 36.6655 13.1848L32.9055 6.46529C32.6705 6.02865 32.177 5.8831 31.754 6.02865L27.0775 7.96929C26.0905 7.19303 25.0565 6.56233 23.905 6.07716L23.2 0.934454C23.1295 0.449293 22.73 0.10968 22.26 0.10968H14.74C14.27 0.10968 13.894 0.449293 13.8235 0.934454L13.1185 6.07716C11.967 6.56233 10.9095 7.21729 9.94601 7.96929L5.26951 6.02865C4.84651 5.85884 4.35301 6.02865 4.11801 6.46529L0.358005 13.1848C0.123005 13.6214 0.217006 14.1308 0.593006 14.4219L4.56451 17.624C4.47051 18.2305 4.40001 18.8854 4.40001 19.5161C4.40001 20.1468 4.44701 20.8018 4.54101 21.4083L0.569505 24.6103C0.217005 24.9014 0.123005 25.4351 0.334505 25.8475L4.09451 32.567C4.32951 33.0036 4.82301 33.1492 5.24601 33.0036L9.92251 31.063C10.9095 31.8392 11.9435 32.4699 13.095 32.9551L13.8 38.0978C13.894 38.583 14.27 38.9226 14.74 38.9226H22.26C22.73 38.9226 23.1295 38.583 23.1765 38.0978L23.8815 32.9551C25.033 32.4699 26.0905 31.815 27.054 31.063L31.7305 33.0036C32.1535 33.1734 32.647 33.0036 32.882 32.567L36.642 25.8475C36.877 25.4108 36.783 24.9014 36.407 24.6103L32.4825 21.4083ZM18.5 26.7936C14.6225 26.7936 11.45 23.5187 11.45 19.5161C11.45 15.5136 14.6225 12.2387 18.5 12.2387C22.3775 12.2387 25.55 15.5136 25.55 19.5161C25.55 23.5187 22.3775 26.7936 18.5 26.7936Z" fill="#FFFEFE"/>
</svg>
