<svg width="31" height="43" viewBox="0 0 43 43" fill="none" xmlns="http://www.w3.org/2000/svg">
<path d="M23.5067 43H19.4933C18.137 43 16.9922 41.9841 16.8309 40.635L16.4027 37.2738C15.5481 36.9961 14.7239 36.6539 13.941 36.2544L11.2642 38.3345C10.1785 39.1748 8.65017 39.078 7.70775 38.1087L4.88587 35.2869C3.92375 34.3534 3.827 32.8251 4.66729 31.7412L6.74742 29.0626C6.34608 28.2797 6.00387 27.4555 5.72796 26.6009L2.35963 26.1727C1.01587 26.0078 0 24.863 0 23.5067V19.4933C0 18.137 1.01587 16.9922 2.365 16.8309L5.72617 16.4027C6.00388 15.5481 6.34608 14.7239 6.74563 13.941L4.66729 11.2642C3.82521 10.1785 3.92375 8.64838 4.89483 7.70596L7.71671 4.88408C8.65017 3.92196 10.1802 3.827 11.2624 4.6655L13.9392 6.74742C14.7221 6.34788 15.5463 6.00567 16.4027 5.72796L16.8309 2.35963C16.9922 1.01587 18.137 0 19.4933 0H23.5067C24.863 0 26.0078 1.01587 26.1691 2.365L26.5973 5.72617C27.4537 6.00388 28.2779 6.34608 29.0608 6.74563L31.7376 4.6655C32.8251 3.82521 34.3516 3.92196 35.294 4.89304L38.1159 7.71492C39.078 8.64838 39.1748 10.1767 38.3345 11.2606L36.2544 13.9392C36.6557 14.7221 36.9979 15.5463 37.2738 16.4009L40.6422 16.8291C41.9841 16.9922 43 18.137 43 19.4933V23.5067C43 24.863 41.9841 26.0078 40.635 26.1691L37.2738 26.5973C36.9961 27.4519 36.6539 28.2761 36.2544 29.059L38.3345 31.7358C39.1766 32.8215 39.078 34.3498 38.107 35.2922L35.2851 38.1141C34.3516 39.0763 32.8215 39.1748 31.7394 38.3327L29.0608 36.2526C28.2779 36.6539 27.4537 36.9961 26.5991 37.272L26.1709 40.6404C26.0078 41.9841 24.863 43 23.5067 43ZM13.8496 34.2925C13.9983 34.2925 14.1506 34.3301 14.2867 34.4054C15.274 34.9572 16.3436 35.4015 17.4652 35.724C17.8092 35.8226 18.0618 36.1164 18.1066 36.4712L18.6082 40.4128C18.662 40.8625 19.0508 41.2083 19.4933 41.2083H23.5067C23.9492 41.2083 24.338 40.8625 24.39 40.4218L24.8934 36.473C24.9382 36.1182 25.1908 35.8244 25.5348 35.7258C26.6564 35.4033 27.726 34.959 28.7132 34.4072C29.0268 34.2316 29.4174 34.262 29.6987 34.4824L32.8341 36.9191C33.1942 37.1986 33.6995 37.1753 34.0076 36.8582L36.8474 34.0184C37.1717 33.703 37.1968 33.1978 36.9173 32.8359L34.4806 29.7005C34.2603 29.4174 34.2298 29.0286 34.4054 28.715C34.9572 27.7278 35.4015 26.6582 35.724 25.5366C35.8226 25.1926 36.1164 24.94 36.4712 24.8952L40.4128 24.3935C40.8625 24.338 41.2083 23.9492 41.2083 23.5067V19.4933C41.2083 19.0508 40.8625 18.662 40.4218 18.61L36.473 18.1066C36.1182 18.0618 35.8244 17.8092 35.7258 17.4652C35.4033 16.3436 34.959 15.274 34.4072 14.2867C34.2316 13.9732 34.2603 13.5844 34.4824 13.3013L36.9191 10.1659C37.2004 9.804 37.1753 9.29875 36.86 8.99417L34.0202 6.15437C33.7066 5.82829 33.1996 5.80321 32.8377 6.0845L29.7022 8.52117C29.4174 8.74154 29.0286 8.772 28.715 8.59642C27.7314 8.04458 26.6618 7.60204 25.5366 7.27775C25.1926 7.17921 24.94 6.88538 24.8952 6.53062L24.3935 2.58896C24.338 2.13746 23.9492 1.79167 23.5067 1.79167H19.4933C19.0508 1.79167 18.662 2.13746 18.61 2.57821L18.1066 6.52704C18.0618 6.88179 17.8092 7.17562 17.4652 7.27596C16.34 7.59846 15.2704 8.04279 14.2867 8.59283C13.9732 8.77021 13.5844 8.73796 13.2995 8.51937L10.1641 6.08271C9.80221 5.80142 9.29875 5.8265 8.99237 6.14183L6.15258 8.98342C5.82829 9.29875 5.80321 9.804 6.08271 10.1659L8.51937 13.3013C8.73975 13.5844 8.77021 13.9732 8.59462 14.2867C8.041 15.274 7.59846 16.3436 7.27596 17.4652C7.17742 17.8092 6.88358 18.0618 6.52883 18.1066L2.58717 18.6082C2.13746 18.662 1.79167 19.0508 1.79167 19.4933V23.5067C1.79167 23.9492 2.13746 24.338 2.57821 24.39L6.52704 24.8934C6.88179 24.9382 7.17562 25.1908 7.27417 25.5348C7.59667 26.6564 8.041 27.726 8.59283 28.7132C8.76842 29.0268 8.73975 29.4156 8.51758 29.6987L6.08092 32.8341C5.79962 33.196 5.82471 33.7012 6.14004 34.0058L8.97983 36.8456C9.29338 37.1699 9.79683 37.195 10.1623 36.9155L13.2977 34.4788C13.4608 34.357 13.6543 34.2925 13.8496 34.2925Z" fill="#47535A"/>
<path d="M21.5 30.4583C16.5604 30.4583 12.5417 26.4396 12.5417 21.5C12.5417 16.5604 16.5604 12.5417 21.5 12.5417C26.4396 12.5417 30.4583 16.5604 30.4583 21.5C30.4583 26.4396 26.4396 30.4583 21.5 30.4583ZM21.5 14.3334C17.5476 14.3334 14.3333 17.5476 14.3333 21.5C14.3333 25.4524 17.5476 28.6667 21.5 28.6667C25.4524 28.6667 28.6666 25.4524 28.6666 21.5C28.6666 17.5476 25.4524 14.3334 21.5 14.3334Z" fill="#47535A"/>
</svg>
